<svg width="25" height="24" viewBox="0 0 25 24" fill="none" xmlns="http://www.w3.org/2000/svg">
<g opacity="0.4">
<path d="M20.9862 20.6109C20.9216 20.7286 20.8267 20.8267 20.7112 20.8951C20.5958 20.9636 20.4641 20.9998 20.33 21H15.83C15.7037 21 15.5796 20.9681 15.4689 20.9073C15.3583 20.8465 15.2648 20.7587 15.1971 20.6522L11.4012 14.6869L5.88495 20.7544C5.75048 20.8988 5.56449 20.9845 5.36731 20.9927C5.17013 21.0009 4.97764 20.9311 4.83159 20.7984C4.68554 20.6657 4.59769 20.4807 4.58709 20.2836C4.57648 20.0866 4.64398 19.8933 4.77495 19.7456L10.5659 13.3706L4.69714 4.15313C4.62486 4.03973 4.5844 3.90898 4.57999 3.77458C4.57559 3.64018 4.60739 3.50707 4.67209 3.38918C4.73678 3.27129 4.83199 3.17296 4.94772 3.10449C5.06346 3.03603 5.19548 2.99993 5.32995 3H9.82995C9.95618 3.00004 10.0804 3.03194 10.191 3.09274C10.3016 3.15353 10.3951 3.24127 10.4628 3.34781L14.2587 9.31312L19.775 3.24562C19.9094 3.10117 20.0954 3.01555 20.2926 3.00731C20.4898 2.99907 20.6823 3.06888 20.8283 3.20161C20.9744 3.33435 21.0622 3.51929 21.0728 3.71636C21.0834 3.91343 21.0159 4.10674 20.885 4.25438L15.094 10.6247L20.9628 19.8478C21.0346 19.9613 21.0747 20.0919 21.0789 20.2262C21.083 20.3604 21.051 20.4933 20.9862 20.6109Z" fill="white"/>
</g>
</svg>
