<svg width="25" height="24" viewBox="0 0 25 24" fill="none" xmlns="http://www.w3.org/2000/svg">
<g opacity="0.4">
<path d="M22.7985 6.5175C22.7102 6.17189 22.5409 5.85224 22.3047 5.58491C22.0685 5.31758 21.7722 5.11024 21.4401 4.98C18.2263 3.73875 13.1113 3.75 12.8301 3.75C12.5488 3.75 7.43383 3.73875 4.22008 4.98C3.88798 5.11024 3.59161 5.31758 3.35542 5.58491C3.11922 5.85224 2.94998 6.17189 2.86164 6.5175C2.61883 7.45313 2.33008 9.16313 2.33008 12C2.33008 14.8369 2.61883 16.5469 2.86164 17.4825C2.94984 17.8283 3.11903 18.1481 3.35523 18.4156C3.59143 18.6831 3.88787 18.8906 4.22008 19.0209C7.29883 20.2088 12.1176 20.25 12.7682 20.25H12.892C13.5426 20.25 18.3641 20.2088 21.4401 19.0209C21.7723 18.8906 22.0687 18.6831 22.3049 18.4156C22.5411 18.1481 22.7103 17.8283 22.7985 17.4825C23.0413 16.545 23.3301 14.8369 23.3301 12C23.3301 9.16313 23.0413 7.45313 22.7985 6.5175ZM15.8854 12.6113L12.1354 15.2363C12.0232 15.3148 11.8917 15.3612 11.755 15.3703C11.6183 15.3794 11.4818 15.351 11.3602 15.288C11.2386 15.225 11.1365 15.1299 11.0651 15.013C10.9937 14.8962 10.9556 14.762 10.9551 14.625V9.375C10.9551 9.2378 10.9928 9.10324 11.064 8.98597C11.1352 8.86869 11.2372 8.77319 11.3589 8.70987C11.4806 8.64655 11.6174 8.61783 11.7543 8.62683C11.8912 8.63584 12.023 8.68222 12.1354 8.76094L15.8854 11.3859C15.984 11.4551 16.0646 11.547 16.1202 11.6539C16.1758 11.7608 16.2048 11.8795 16.2048 12C16.2048 12.1205 16.1758 12.2392 16.1202 12.3461C16.0646 12.453 15.984 12.5449 15.8854 12.6141V12.6113Z" fill="white"/>
</g>
</svg>
